<?xml version="1.0" encoding="utf-8"?>
<!-- Generator: Adobe Illustrator 18.1.1, SVG Export Plug-In . SVG Version: 6.00 Build 0)  -->
<svg version="1.1" id="Layer_1" xmlns="http://www.w3.org/2000/svg" xmlns:xlink="http://www.w3.org/1999/xlink" x="0px" y="0px"
	 viewBox="-293 385 24 24" enable-background="new -293 385 24 24" xml:space="preserve">
<path d="M-293,409h24v-7h-24V409z M-275,405h4v2h-4V405z"/>
<rect x="-288.2" y="387.5" fill="#FFFFFF" width="15.2" height="10.7"/>
<path d="M-272,385h-18l-3,16h24L-272,385z M-277,397c-1.1,0-6.6,0-7.5,0c-1.4,0-2.5-1.1-2.5-2.5c0-1.2,0.9-2.2,2-2.5
	c0.2-1.7,1.7-3,3.5-3c1.5,0,2.8,0.9,3.3,2.3c0.3-0.2,0.8-0.3,1.2-0.3c1.7,0,3,1.3,3,3S-275.3,397-277,397z"/>
</svg>
