<?xml version="1.0" encoding="utf-8"?><!-- Generator: Adobe Illustrator 17.0.2, SVG Export Plug-In . SVG Version: 6.00 Build 0)  --><!DOCTYPE svg PUBLIC "-//W3C//DTD SVG 1.0//EN" "http://www.w3.org/TR/2001/REC-SVG-20010904/DTD/svg10.dtd"><svg xmlns="http://www.w3.org/2000/svg" xmlns:xlink="http://www.w3.org/1999/xlink" version="1.0" id="Layer_1" x="0px" y="0px" width="26px" height="25px" viewBox="0 0 26 25" style="enable-background:new 0 0 26 25;" xml:space="preserve">
<g>
	<path d="M20,23H6c-0.551,0-1,1-1,1v1h16v-1C21,23.449,20.551,23,20,23z"/>
	<path d="M23,0H3C1.344,0,0,1.344,0,3v14c0,1.656,1.344,3,3,3h7v1c0,0.551,0.449,1,1,1h4c0.551,0,1-0.516,1-1c0-0.209,0-0.611,0-1h7   c1.656,0,3-1.344,3-3V3C26,1.344,24.656,0,23,0z M3,16c-0.551,0-1-0.449-1-1V3c0-0.551,0.449-1,1-1h20c0.551,0,1,0.449,1,1v12   c0,0.551-0.449,1-1,1H3z M22.999,19.037c-0.571,0-1.035-0.464-1.035-1.037c0-0.572,0.464-1.037,1.035-1.037   c0.573,0,1.037,0.465,1.037,1.037C24.036,18.573,23.572,19.037,22.999,19.037z"/>
</g>
</svg>