<?xml version="1.0" encoding="utf-8"?>
<!-- Generator: Adobe Illustrator 19.1.0, SVG Export Plug-In . SVG Version: 6.00 Build 0)  -->
<svg version="1.1" id="Lager_1" xmlns="http://www.w3.org/2000/svg" xmlns:xlink="http://www.w3.org/1999/xlink" x="0px" y="0px"
	 width="100px" height="100px" viewBox="0 0 100 100" style="enable-background:new 0 0 100 100;" xml:space="preserve">
<path d="M98.6,25.8c-0.3-1.1-1.3-1.7-2.4-1.4c-1.1,0.3-1.7,1.3-1.4,2.4c0,0.1,2,9-3.5,22.6c-0.1,0.1-0.2,0.3-0.3,0.4
	c-9,18.9-24.4,31.9-41.2,34.7c-8.3,1.4-15.7-0.1-19.4-3.9c-8.4-8.5-4.1-24,11-39.4c1.8-1.8,3.4-2.2,4.4-2c0.5,0.1,0.8,0.4,0.9,0.8
	c0.2,0.9-0.2,2.5-2.1,4.5c-0.2,0.2-0.3,0.4-0.5,0.5c0,0-0.1,0.1-0.1,0.1c-0.2,0.1-0.3,0.2-0.4,0.4c-7.9,8.6-12.4,21.1-4.5,29.4
	c2.6,2.7,5.8,4.1,9.6,4.1c0,0,0,0,0.1,0c8.3,0,17.6-6.8,22.9-12.5c22.3-22.3,21.7-46.6,9.6-59.1C77.2,3.3,70.7,1,63.5,1c0,0,0,0,0,0
	c-9,0-23,3.5-39.2,20C-4,50.1,1.2,73.2,1.4,74.2c0.3,1.1,1.3,1.7,2.4,1.4c1.1-0.3,1.7-1.3,1.4-2.4c0-0.2-2.4-10.7,5.2-26.4
	c0.2-0.2,0.4-0.4,0.5-0.6c11-20.4,28.1-29.5,40.5-31.2c7.1-1,13,0.3,16.2,3.6c8.9,9,5.1,25.6-9.2,40.2c-1.8,1.8-3.4,2.2-4.4,2
	c-0.5-0.1-0.8-0.4-0.9-0.8c-0.2-0.9,0.2-2.5,2.1-4.5c0.2-0.2,0.3-0.4,0.5-0.6c0,0,0.1-0.1,0.1-0.1c0.2-0.1,0.3-0.2,0.4-0.4
	c7.9-8.6,12.4-21.1,4.5-29.4C58.2,22.4,55,21,51.2,21c0,0,0,0-0.1,0c-8.3,0-17.6,6.8-23,12.5C6.1,55.8,6.7,80.1,18.8,92.6
	c4,4.1,10.5,6.5,17.8,6.5c0,0,0,0,0,0c9,0,23-3.5,39.2-20C104,50,98.8,26.8,98.6,25.8z"/>
<circle cx="50" cy="50" r="28.9"/>
</svg>
